<svg xmlns="http://www.w3.org/2000/svg" width="391" height="475.003" viewBox="0 0 391 475.003" fill="none">
  <path d="M 390.989 175.302 C 390.989 176.119 390.767 177.194 390.472 177.714 C 390.176 178.271 389.917 179.718 389.917 181.241 C 389.88 184.359 389.363 185.954 387.628 188.366 C 385.856 190.778 382.643 196.568 381.978 198.572 C 381.646 199.425 381.129 200.724 380.833 201.43 C 380.502 202.099 380.131 203.509 379.985 204.584 C 379.653 206.885 379.246 207.665 376.92 210.559 C 375.738 212.007 374.926 213.491 374.557 214.828 C 373.486 218.688 372.896 219.616 369.13 223.105 C 366.397 225.629 365.252 226.965 364.625 228.376 C 363.739 230.417 362.373 231.754 359.454 233.424 C 355.393 235.762 347.158 243.667 344.241 248.047 C 343.428 249.271 341.952 251.017 340.955 251.945 C 338.186 254.432 334.899 258.292 334.899 258.997 C 334.899 259.33 333.827 260.74 332.499 262.115 C 331.169 263.487 330.099 264.862 330.099 265.122 C 330.099 265.419 329.361 266.383 328.475 267.312 C 326.813 268.982 326.703 269.242 326.223 273.175 C 326.112 274.139 325.669 275.328 325.264 275.81 C 324.303 277.071 324.378 277.442 325.67 277.74 C 327.036 278.037 327.59 279.001 327.442 280.82 C 327.369 281.735 326.766 282.206 325.633 282.231 C 323.417 282.304 322.495 282.824 321.607 284.605 C 320.573 286.609 320.684 287.612 322.014 288.91 C 324.155 290.951 324.782 293.252 323.602 294.922 C 322.531 296.481 322.31 298.003 322.753 300.935 C 322.974 302.456 323.454 304.424 323.861 305.314 C 324.23 306.167 324.561 307.504 324.561 308.284 C 324.561 311.551 326.186 314.036 329.805 316.375 C 331.504 317.452 331.836 318.638 330.987 320.273 C 330.359 321.534 330.322 322.091 330.101 334.709 C 330.063 336.862 330.138 339.534 330.286 340.684 C 330.618 343.319 330.101 344.396 326.89 347.774 C 325.007 349.704 324.452 350.521 324.379 351.56 C 324.158 353.824 323.862 354.27 320.797 356.942 C 318.398 359.058 317.474 359.614 315.85 359.985 C 312.822 360.653 310.385 362.248 308.354 364.884 C 307.358 366.183 305.217 368.411 303.628 369.857 C 301.376 371.861 300.601 372.864 300.232 374.051 C 299.752 375.683 299.16 376.092 296.133 376.649 C 293.068 377.206 291.702 380.361 293.733 382.142 C 294.361 382.699 294.656 383.33 294.656 384.145 C 294.656 384.814 295.025 386.113 295.432 387.04 C 295.949 388.153 296.097 389.081 295.949 389.898 C 295.801 390.715 295.986 391.568 296.503 392.57 C 297.389 394.389 297.427 395.353 296.614 397.469 C 296.245 398.509 296.024 400.364 295.986 402.591 L 295.949 406.08 L 294.177 407.677 C 292.847 408.901 291.925 409.385 290.299 409.718 C 287.455 410.311 284.391 411.981 282.47 413.949 C 280.957 415.508 280.882 415.657 280.623 418.7 C 280.18 423.451 279.183 427.422 277.817 429.945 C 277.115 431.169 276.562 432.728 276.562 433.397 C 276.562 434.585 276.451 434.696 274.679 435.067 C 273.904 435.253 273.276 436.069 271.577 439.076 C 269.767 442.342 267.072 446.425 263.379 451.509 C 262.752 452.362 262.013 452.846 260.831 453.142 C 259.466 453.513 259.022 453.846 258.284 455.109 C 257.398 456.631 252.154 461.901 248.72 464.759 C 247.28 465.948 246.689 466.207 245.507 466.17 C 244.4 466.132 243.808 466.356 242.849 467.172 C 241.852 468.062 241.335 468.249 239.822 468.211 C 238.456 468.173 237.237 468.471 235.243 469.399 C 232.51 470.623 232.474 470.623 230 470.179 C 228.486 469.881 226.862 469.808 225.753 469.992 C 223.943 470.252 221.95 470.326 219.513 470.141 C 218.627 470.068 217.851 470.29 217.076 470.883 C 216.448 471.365 215.303 471.774 214.565 471.847 C 211.5 472.033 208.362 472.887 206.811 473.926 C 205.888 474.519 204.891 475.003 204.559 475.003 C 204.264 475.003 203.194 474.186 202.197 473.184 C 200.904 471.847 200.056 471.327 199.022 471.143 C 198.246 471.032 197.249 470.623 196.806 470.252 C 196.067 469.659 196.03 469.546 196.584 469.102 C 197.471 468.36 197.323 467.618 195.919 466.059 C 194.664 464.686 193.999 462.829 194.295 461.381 C 194.368 460.935 194.812 460.677 195.698 460.602 C 197.323 460.453 197.545 460.082 197.545 457.521 C 197.545 455.925 197.36 455.145 196.659 454.181 C 196.142 453.475 195.329 452.065 194.85 450.989 C 194.333 449.95 193.557 448.873 193.115 448.651 C 191.897 448.02 190.899 445.348 190.936 443.009 C 191.009 440.151 188.943 435.029 187.392 434.176 C 186.395 433.619 185.286 432.024 183.22 428.237 C 182.517 426.938 181.299 421.112 181.299 418.996 C 181.299 418.365 180.968 416.879 180.561 415.693 C 179.971 414.023 179.859 413.058 180.044 410.793 C 180.23 408.455 180.082 407.527 179.306 404.892 C 178.272 401.514 178.124 399.213 178.752 396.95 C 179.306 394.833 178.937 393.796 176.131 389.86 C 173.62 386.298 172.697 384.292 172.253 381.101 C 171.921 378.948 170.702 375.979 169.668 374.791 C 169.188 374.271 168.523 372.934 168.192 371.822 C 167.712 370.374 167.01 369.298 165.754 368.073 C 164.793 367.144 163.872 365.883 163.686 365.289 C 163.132 363.062 163.355 357.718 164.535 347.475 C 164.646 346.621 165.237 345.136 165.865 344.172 C 166.824 342.724 167.047 341.871 167.416 338.604 C 167.712 336.154 168.081 334.484 168.45 334.075 C 168.746 333.704 169.115 332.554 169.188 331.477 C 169.409 328.954 170.85 326.169 172.401 325.242 C 176.02 323.09 176.758 321.122 175.393 317.262 C 174.949 315.925 173.879 313.329 173.066 311.51 C 171.331 307.725 171.183 305.795 172.401 303.752 C 173.508 301.971 173.398 301.118 171.515 297.257 C 170.591 295.365 169.853 293.435 169.853 292.989 C 169.853 292.507 169.188 291.132 168.377 289.946 C 166.642 287.385 166.567 286.679 167.823 285.864 C 168.34 285.53 168.746 285.122 168.746 284.973 C 168.746 284.824 168.34 284.527 167.823 284.304 C 167.12 283.971 166.899 283.598 166.899 282.634 C 166.899 281.446 165.423 278.663 163.945 276.993 C 163.576 276.584 163.207 275.842 163.132 275.323 C 163.059 274.692 162.615 274.21 161.802 273.875 C 161.064 273.541 160.547 272.984 160.436 272.464 C 160.326 271.982 160.178 271.24 160.067 270.757 C 159.994 270.274 159.07 268.938 158.074 267.787 C 157.04 266.599 155.747 264.855 155.23 263.889 C 154.676 262.925 153.531 261.142 152.682 259.918 C 150.208 256.28 149.432 254.055 149.655 251.196 C 149.765 249.859 150.245 247.522 150.762 245.999 C 151.279 244.478 151.796 242.214 151.944 240.989 C 152.092 239.765 152.609 237.204 153.126 235.274 C 153.902 232.38 154.012 231.116 153.902 228.184 C 153.754 223.805 152.794 221.652 149.507 218.015 L 147.255 215.565 L 143.6 215.565 C 140.129 215.565 139.87 215.638 137.618 216.864 C 136.326 217.57 134.997 218.163 134.664 218.163 C 134.147 218.163 132.633 217.31 130.528 215.825 C 129.973 215.416 129.79 214.823 129.752 213.301 C 129.715 212.188 129.679 211.112 129.642 210.852 C 129.569 210.035 127.684 208.104 126.245 207.4 C 125.359 206.918 124.805 206.361 124.732 205.841 C 124.658 205.248 124.288 204.913 123.514 204.764 C 121.52 204.318 109.925 204.467 107.452 204.95 C 105.421 205.321 105.052 205.508 104.867 206.287 C 104.681 207.14 104.387 207.253 101.395 207.66 C 98.995 207.957 97.924 208.291 97.296 208.884 C 96.853 209.293 95.82 209.85 95.045 210.072 C 94.269 210.258 92.903 210.925 92.053 211.52 C 91.204 212.113 89.764 212.744 88.878 212.93 C 87.954 213.079 86.699 213.599 86.034 214.081 L 84.889 214.898 L 83.893 213.97 C 82.193 212.337 79.61 211.447 75.363 211.038 C 70.305 210.556 68.016 210.741 66.648 211.78 C 65.946 212.3 64.728 212.671 63.325 212.819 C 61.995 212.968 60.592 213.377 59.781 213.896 C 57.787 215.195 53.983 217.05 53.393 217.05 C 53.061 217.05 52.285 216.717 51.62 216.308 C 50.955 215.9 49.996 215.566 49.479 215.566 C 48.334 215.566 47.855 215.269 47.3 214.194 C 47.004 213.636 46.487 213.341 45.491 213.265 C 44.273 213.154 44.088 213.006 43.644 211.669 C 42.979 209.628 41.059 207.771 37.514 205.768 C 34.153 203.875 31.089 200.979 30.498 199.16 C 30.202 198.307 29.796 197.899 28.947 197.676 C 28.209 197.49 27.582 196.934 27.065 196.006 C 26.621 195.227 25.255 193.632 24.037 192.444 C 21.563 190.031 21.045 188.657 21.785 186.469 C 22.192 185.169 22.192 185.132 20.197 183.128 C 18.867 181.829 17.797 181.05 17.132 180.976 C 16.394 180.902 16.025 180.643 15.95 180.123 C 15.877 179.714 15.248 178.155 14.547 176.671 C 13.475 174.482 12.996 173.851 11.999 173.405 C 10.854 172.958 10.744 172.736 10.523 170.844 C 10.227 168.432 9.268 167.466 6.941 167.059 C 3.839 166.577 2.214 163.978 2.917 160.6 C 3.138 159.598 3.323 157.557 3.323 156.109 C 3.323 153.622 3.25 153.437 2.068 152.324 C 0.554 150.914 0 149.875 0 148.464 C 0 147.276 0.849 146.312 3.582 144.531 L 5.354 143.38 L 5.575 140.411 C 5.944 135.846 6.424 133.805 7.533 131.911 C 8.456 130.314 8.529 129.943 8.271 127.754 C 8.086 125.972 8.16 125.044 8.529 124.376 C 8.973 123.522 8.973 123.374 8.529 123.225 C 7.643 122.928 5.613 120.813 5.354 119.922 C 5.206 119.329 5.427 118.809 6.313 117.919 C 7.31 116.917 7.421 116.546 7.237 115.395 C 7.126 114.653 7.016 113.652 7.016 113.205 C 7.016 112.648 6.388 111.722 5.391 110.756 C 3.361 108.752 2.4 106.079 2.771 103.555 C 2.992 102.107 3.325 101.514 4.801 100.141 C 6.759 98.322 7.608 96.839 9.269 92.236 C 9.897 90.566 10.858 88.674 11.41 88.079 C 11.965 87.448 12.776 86.446 13.22 85.816 C 13.664 85.185 14.513 84.516 15.213 84.332 L 16.431 83.961 L 16.652 80.472 C 16.911 76.24 17.76 74.31 20.049 72.678 C 23.076 70.526 23.962 69.226 26.178 64.029 C 27.027 62.026 28.468 61.171 30.905 61.171 C 31.68 61.171 33.194 60.725 34.301 60.243 C 36.517 59.203 40.948 55.232 42.572 52.858 C 43.127 52.005 44.013 50.779 44.492 50.075 C 45.674 48.478 45.748 45.917 44.678 44.284 C 43.792 42.912 43.718 40.5 44.53 39.607 C 44.861 39.236 45.343 37.899 45.601 36.6 C 46.008 34.67 46.008 34.15 45.564 33.26 C 44.861 31.887 44.899 30.588 45.712 29.919 C 46.598 29.177 48.962 28.212 50.993 27.767 C 53.651 27.21 58.119 25.355 59.56 24.278 C 61.738 22.608 65.874 15.853 66.244 13.366 C 66.539 11.399 67.426 9.952 68.349 9.952 C 68.718 9.952 69.79 10.843 70.711 11.956 C 71.671 13.069 73.001 14.257 73.666 14.628 C 74.773 15.221 74.996 15.221 76.287 14.701 C 78.613 13.773 83.006 13.513 84.632 14.182 C 85.408 14.515 86.626 14.775 87.401 14.775 C 88.583 14.775 89.136 14.477 90.762 12.918 C 93.124 10.655 95.71 9.764 98.701 10.135 C 100.842 10.395 101.249 10.173 101.693 8.354 C 102.062 6.832 103.909 6.164 108.746 5.942 C 112.697 5.755 112.807 5.72 114.027 4.531 L 115.245 3.343 L 120.488 3.53 C 125.177 3.716 125.915 3.827 127.504 4.68 L 129.276 5.646 L 129.83 4.829 C 130.199 4.309 130.79 4.012 131.492 4.012 C 132.305 4.012 132.674 3.752 133.006 3.083 C 133.45 2.082 134.04 1.933 135.147 2.526 C 135.591 2.786 136.181 2.786 136.809 2.526 C 137.622 2.229 138.397 2.34 140.833 3.157 C 142.457 3.75 144.193 4.159 144.598 4.085 C 145.042 4.012 146.445 3.046 147.736 1.933 C 150.874 -0.777 151.539 -0.701 154.937 2.564 L 156.784 4.383 L 157.67 3.454 C 158.15 2.935 158.742 2.526 159 2.526 C 160.035 2.526 159.887 3.379 158.631 5.014 C 157.56 6.386 157.301 7.055 157.301 8.354 C 157.301 9.764 157.487 10.173 158.778 11.434 C 160.55 13.178 160.808 14.997 159.443 16.259 C 158.999 16.667 158.446 17.447 158.225 17.967 C 157.966 18.597 157.376 19.117 156.563 19.377 C 154.864 19.934 154.089 21.418 154.716 22.977 C 154.975 23.57 155.306 24.054 155.454 24.054 C 155.64 24.054 156.23 24.463 156.82 24.945 C 157.558 25.576 158.075 25.762 158.444 25.502 C 159.33 24.945 159.774 25.131 160.55 26.43 C 161.399 27.878 162.987 28.471 165.793 28.509 C 166.717 28.547 168.637 28.769 170.113 29.029 C 172.329 29.437 172.92 29.697 173.991 30.81 C 175.136 32.034 175.394 32.109 178.053 32.332 C 182.299 32.629 182.927 33.074 183.886 36.116 C 184.514 38.12 185.917 39.939 187.32 40.57 C 191.936 42.5 193.635 42.982 195.812 42.982 C 198.212 42.982 198.397 43.055 202.127 45.765 C 204.268 47.324 205.561 47.398 207.702 46.136 C 209.327 45.208 210.471 43.389 210.471 41.794 C 210.471 41.312 210.139 39.937 209.733 38.751 C 209.105 36.97 209.031 36.376 209.364 35.373 C 209.918 33.74 210.323 33.443 213.242 32.59 C 214.903 32.108 216.159 31.439 217.155 30.549 C 219.038 28.841 220.626 28.841 221.55 30.549 C 221.956 31.291 222.547 31.737 223.36 31.885 C 225.059 32.219 225.981 33.222 225.981 34.669 C 225.981 36.115 226.054 36.19 231.52 36.487 C 233.847 36.636 236.061 36.821 236.394 36.896 C 236.726 37.007 237.539 37.898 238.129 38.9 C 239.384 40.941 239.939 41.163 240.677 39.977 C 241.009 39.457 241.379 39.308 241.784 39.457 C 242.116 39.568 243.925 40.014 245.808 40.385 C 247.728 40.756 249.649 41.387 250.239 41.833 C 250.793 42.242 252.159 42.761 253.266 42.984 C 254.338 43.17 256.072 43.614 257.107 43.912 C 259.248 44.543 261.168 44.618 262.165 44.098 C 262.534 43.912 263.161 43.17 263.568 42.466 C 264.047 41.648 264.675 41.129 265.415 40.944 C 266.042 40.833 266.745 40.462 267.003 40.165 C 268.075 38.865 268.702 38.828 272.801 40.016 C 277.196 41.277 277.972 41.575 276.494 41.353 C 275.903 41.279 275.46 41.353 275.46 41.539 C 275.46 41.688 276.346 43.802 277.453 46.216 C 278.635 48.815 279.3 50.745 279.115 50.929 C 277.526 52.637 282.327 61.692 286.868 65.701 C 287.94 66.592 288.013 66.852 288.013 69.153 C 288.013 71.454 288.05 71.714 289.527 73.162 C 290.34 73.979 291.262 75.203 291.595 75.796 C 291.891 76.427 292.518 77.355 292.998 77.875 C 294.105 79.099 296.876 84.482 296.876 85.373 C 296.876 86.523 297.541 87.414 298.537 87.674 C 299.276 87.86 299.461 88.156 299.461 89.01 C 299.461 89.604 299.313 90.494 299.092 91.052 C 298.206 93.39 300.015 96.544 302.488 97.064 C 303.781 97.324 305.221 99.327 307.142 103.411 C 308.989 107.456 309.431 109.461 309.431 113.766 C 309.431 119.481 311.092 123.156 313.678 123.156 C 314.305 123.156 314.564 123.416 314.749 124.269 C 314.934 125.198 315.118 125.382 316.042 125.382 C 317.297 125.382 317.372 125.493 318.589 128.352 C 320.103 131.841 322.061 139.894 321.765 141.342 C 321.544 142.382 322.799 144.312 323.685 144.312 C 323.981 144.312 324.83 144.869 325.568 145.536 C 326.343 146.204 327.488 147.057 328.078 147.466 C 330.442 148.95 333.136 151.548 333.691 152.921 C 333.987 153.663 334.504 154.369 334.835 154.48 C 335.204 154.591 336.201 154.851 337.125 155.073 C 338.786 155.519 340.079 156.372 340.079 157.003 C 340.079 157.19 340.558 158.043 341.15 158.896 C 341.705 159.749 342.295 160.826 342.443 161.308 C 342.591 161.754 343.256 162.385 343.957 162.645 C 344.953 163.091 345.212 163.424 345.36 164.612 C 345.47 165.392 345.691 166.469 345.804 167.062 C 346.135 168.361 345.472 169.178 344.104 169.178 C 342.887 169.178 342.184 170.144 342.701 171.108 C 342.96 171.591 343.44 171.739 344.511 171.702 C 346.394 171.628 347.169 172.37 347.982 174.82 C 348.314 175.897 348.868 177.047 349.2 177.418 C 350.086 178.42 352.819 178.271 356.806 176.972 C 359.871 175.97 360.572 175.895 363.231 176.119 L 366.223 176.341 L 367.626 174.969 C 368.808 173.818 369.215 173.632 370.764 173.632 C 371.761 173.632 373.385 173.298 374.419 172.89 C 375.712 172.37 376.746 172.221 377.669 172.37 C 379.258 172.63 383.947 170.997 386.309 169.363 C 387.047 168.843 387.86 168.435 388.119 168.435 C 388.968 168.435 389.929 169.659 389.929 170.811 C 389.966 171.442 390.187 172.37 390.483 172.89 C 390.779 173.409 391 174.486 391 175.302 L 390.989 175.302 Z" fill="currentColor" fill-rule="nonzero"/>
</svg>
