<svg xmlns="http://www.w3.org/2000/svg" width="392.889" height="474.856" viewBox="0 0 392.889 474.856" fill="none">
  <path d="M 392.877 175.248 C 392.877 176.065 392.655 177.14 392.358 177.659 C 392.06 178.216 391.801 179.662 391.801 181.185 C 391.763 184.302 391.243 185.897 389.5 188.308 C 387.72 190.719 384.491 196.508 383.823 198.511 C 383.49 199.363 382.97 200.662 382.673 201.368 C 382.34 202.036 381.967 203.446 381.82 204.521 C 381.487 206.822 381.078 207.601 378.741 210.494 C 377.553 211.942 376.738 213.425 376.367 214.762 C 375.29 218.62 374.697 219.548 370.913 223.036 C 368.167 225.559 367.017 226.895 366.386 228.305 C 365.496 230.346 364.123 231.682 361.191 233.352 C 357.11 235.69 348.835 243.592 345.904 247.971 C 345.087 249.194 343.604 250.939 342.602 251.867 C 339.82 254.354 336.516 258.212 336.516 258.917 C 336.516 259.25 335.44 260.66 334.105 262.034 C 332.769 263.406 331.694 264.78 331.694 265.04 C 331.694 265.337 330.952 266.301 330.062 267.229 C 328.392 268.899 328.281 269.159 327.799 273.091 C 327.688 274.055 327.242 275.243 326.835 275.725 C 325.869 276.986 325.945 277.357 327.243 277.654 C 328.616 277.951 329.173 278.915 329.024 280.734 C 328.95 281.648 328.344 282.118 327.206 282.144 C 324.979 282.217 324.053 282.737 323.161 284.517 C 322.122 286.52 322.233 287.523 323.569 288.821 C 325.721 290.861 326.351 293.161 325.165 294.831 C 324.089 296.39 323.866 297.911 324.312 300.842 C 324.535 302.363 325.017 304.33 325.425 305.22 C 325.796 306.073 326.129 307.409 326.129 308.189 C 326.129 311.454 327.761 313.939 331.398 316.277 C 333.105 317.354 333.439 318.54 332.586 320.174 C 331.955 321.435 331.917 321.992 331.695 334.606 C 331.658 336.758 331.733 339.429 331.882 340.579 C 332.215 343.213 331.695 344.289 328.469 347.666 C 326.577 349.596 326.02 350.413 325.946 351.452 C 325.724 353.714 325.427 354.16 322.347 356.832 C 319.936 358.947 319.008 359.503 317.376 359.874 C 314.333 360.542 311.885 362.136 309.844 364.772 C 308.842 366.07 306.691 368.297 305.095 369.743 C 302.832 371.746 302.053 372.749 301.682 373.935 C 301.2 375.567 300.605 375.976 297.563 376.533 C 294.484 377.09 293.111 380.243 295.152 382.024 C 295.782 382.581 296.08 383.212 296.08 384.027 C 296.08 384.695 296.451 385.994 296.859 386.92 C 297.379 388.033 297.527 388.961 297.379 389.778 C 297.23 390.595 297.416 391.447 297.936 392.449 C 298.826 394.267 298.864 395.231 298.047 397.347 C 297.676 398.386 297.454 400.24 297.416 402.467 L 297.379 405.955 L 295.598 407.551 C 294.261 408.775 293.335 409.258 291.701 409.592 C 288.844 410.185 285.764 411.854 283.835 413.821 C 282.314 415.38 282.239 415.529 281.979 418.571 C 281.533 423.32 280.531 427.29 279.159 429.813 C 278.453 431.036 277.898 432.595 277.898 433.263 C 277.898 434.451 277.787 434.562 276.006 434.933 C 275.227 435.119 274.596 435.934 272.889 438.94 C 271.07 442.206 268.362 446.287 264.651 451.37 C 264.021 452.223 263.279 452.706 262.091 453.002 C 260.719 453.373 260.273 453.706 259.531 454.969 C 258.641 456.49 253.372 461.759 249.922 464.616 C 248.474 465.804 247.881 466.064 246.693 466.026 C 245.581 465.988 244.986 466.212 244.022 467.028 C 243.021 467.918 242.501 468.104 240.98 468.067 C 239.608 468.029 238.383 468.326 236.38 469.254 C 233.633 470.478 233.597 470.478 231.111 470.034 C 229.59 469.736 227.958 469.663 226.843 469.847 C 225.025 470.107 223.022 470.181 220.573 469.996 C 219.683 469.922 218.903 470.145 218.124 470.738 C 217.493 471.22 216.343 471.628 215.602 471.702 C 212.522 471.888 209.369 472.741 207.81 473.78 C 206.882 474.373 205.881 474.856 205.548 474.856 C 205.25 474.856 204.175 474.039 203.174 473.038 C 201.875 471.702 201.022 471.182 199.983 470.997 C 199.204 470.886 198.202 470.478 197.756 470.107 C 197.015 469.514 196.977 469.401 197.534 468.957 C 198.424 468.215 198.276 467.474 196.866 465.915 C 195.605 464.543 194.936 462.687 195.234 461.239 C 195.307 460.793 195.753 460.535 196.644 460.46 C 198.276 460.311 198.5 459.94 198.5 457.38 C 198.5 455.784 198.313 455.005 197.609 454.041 C 197.09 453.335 196.273 451.925 195.791 450.85 C 195.271 449.811 194.492 448.734 194.048 448.512 C 192.824 447.882 191.821 445.211 191.858 442.873 C 191.932 440.015 189.855 434.895 188.297 434.042 C 187.295 433.485 186.181 431.891 184.105 428.105 C 183.399 426.806 182.175 420.982 182.175 418.866 C 182.175 418.236 181.842 416.751 181.434 415.565 C 180.84 413.895 180.728 412.931 180.914 410.667 C 181.1 408.329 180.952 407.401 180.172 404.767 C 179.133 401.39 178.985 399.09 179.615 396.827 C 180.172 394.712 179.801 393.674 176.982 389.74 C 174.459 386.179 173.531 384.174 173.085 380.983 C 172.752 378.832 171.527 375.863 170.487 374.675 C 170.006 374.156 169.337 372.819 169.004 371.707 C 168.522 370.259 167.816 369.184 166.555 367.959 C 165.59 367.031 164.663 365.77 164.477 365.177 C 163.92 362.95 164.144 357.608 165.33 347.367 C 165.441 346.515 166.036 345.029 166.666 344.066 C 167.63 342.618 167.854 341.765 168.225 338.499 C 168.522 336.05 168.893 334.381 169.264 333.972 C 169.561 333.601 169.932 332.451 170.006 331.375 C 170.228 328.852 171.675 326.068 173.234 325.142 C 176.871 322.99 177.612 321.023 176.24 317.164 C 175.794 315.828 174.719 313.232 173.902 311.414 C 172.159 307.63 172.01 305.7 173.234 303.658 C 174.346 301.878 174.235 301.025 172.343 297.166 C 171.415 295.274 170.674 293.344 170.674 292.898 C 170.674 292.417 170.006 291.043 169.19 289.856 C 167.447 287.296 167.372 286.591 168.633 285.775 C 169.153 285.442 169.561 285.034 169.561 284.885 C 169.561 284.736 169.153 284.439 168.633 284.217 C 167.927 283.883 167.705 283.511 167.705 282.547 C 167.705 281.359 166.222 278.577 164.737 276.907 C 164.366 276.499 163.995 275.757 163.92 275.238 C 163.846 274.607 163.4 274.125 162.583 273.79 C 161.842 273.457 161.322 272.9 161.211 272.38 C 161.1 271.898 160.951 271.157 160.84 270.673 C 160.767 270.191 159.839 268.855 158.837 267.705 C 157.798 266.517 156.499 264.774 155.98 263.808 C 155.423 262.844 154.273 261.062 153.42 259.838 C 150.933 256.201 150.154 253.976 150.378 251.119 C 150.489 249.782 150.971 247.446 151.49 245.923 C 152.01 244.402 152.529 242.14 152.678 240.914 C 152.827 239.691 153.346 237.131 153.866 235.201 C 154.645 232.308 154.756 231.045 154.645 228.114 C 154.496 223.736 153.532 221.584 150.229 217.947 L 147.966 215.498 L 144.294 215.498 C 140.806 215.498 140.546 215.572 138.283 216.797 C 136.984 217.503 135.65 218.096 135.315 218.096 C 134.795 218.096 133.274 217.243 131.158 215.758 C 130.601 215.35 130.417 214.757 130.379 213.236 C 130.342 212.123 130.306 211.046 130.268 210.787 C 130.194 209.97 128.301 208.04 126.855 207.336 C 125.965 206.854 125.408 206.297 125.334 205.778 C 125.261 205.185 124.888 204.85 124.11 204.701 C 122.107 204.255 110.456 204.404 107.971 204.887 C 105.93 205.258 105.559 205.444 105.373 206.224 C 105.187 207.076 104.891 207.189 101.885 207.596 C 99.474 207.893 98.397 208.227 97.766 208.82 C 97.32 209.228 96.283 209.785 95.504 210.007 C 94.724 210.194 93.352 210.86 92.498 211.455 C 91.645 212.048 90.197 212.678 89.307 212.865 C 88.379 213.013 87.118 213.533 86.449 214.015 L 85.299 214.832 L 84.298 213.904 C 82.591 212.272 79.995 211.381 75.727 210.973 C 70.645 210.491 68.344 210.676 66.97 211.715 C 66.265 212.234 65.041 212.605 63.631 212.754 C 62.295 212.902 60.885 213.311 60.069 213.83 C 58.066 215.129 54.243 216.983 53.65 216.983 C 53.317 216.983 52.538 216.65 51.87 216.242 C 51.201 215.833 50.238 215.5 49.718 215.5 C 48.568 215.5 48.086 215.203 47.529 214.128 C 47.231 213.571 46.712 213.275 45.71 213.2 C 44.487 213.089 44.301 212.94 43.855 211.604 C 43.186 209.563 41.257 207.707 37.695 205.704 C 34.318 203.812 31.239 200.917 30.646 199.099 C 30.348 198.246 29.94 197.838 29.087 197.615 C 28.345 197.429 27.715 196.874 27.195 195.946 C 26.749 195.166 25.377 193.572 24.153 192.384 C 21.667 189.973 21.147 188.599 21.891 186.411 C 22.299 185.112 22.299 185.075 20.294 183.072 C 18.958 181.773 17.883 180.994 17.215 180.92 C 16.473 180.847 16.102 180.587 16.027 180.067 C 15.953 179.659 15.321 178.1 14.617 176.617 C 13.54 174.428 13.058 173.797 12.057 173.351 C 10.907 172.905 10.796 172.683 10.574 170.791 C 10.276 168.38 9.312 167.414 6.974 167.007 C 3.857 166.525 2.225 163.928 2.931 160.551 C 3.153 159.549 3.339 157.509 3.339 156.061 C 3.339 153.575 3.266 153.39 2.078 152.277 C 0.557 150.868 0 149.828 0 148.419 C 0 147.231 0.853 146.267 3.599 144.486 L 5.38 143.336 L 5.602 140.367 C 5.973 135.804 6.455 133.764 7.569 131.87 C 8.497 130.274 8.571 129.903 8.311 127.714 C 8.125 125.933 8.2 125.005 8.571 124.337 C 9.017 123.484 9.017 123.336 8.571 123.187 C 7.68 122.89 5.64 120.776 5.38 119.885 C 5.231 119.292 5.453 118.773 6.344 117.882 C 7.345 116.881 7.456 116.51 7.272 115.36 C 7.161 114.618 7.05 113.617 7.05 113.171 C 7.05 112.613 6.419 111.687 5.417 110.722 C 3.377 108.719 2.411 106.046 2.784 103.523 C 3.006 102.076 3.341 101.483 4.824 100.11 C 6.791 98.292 7.644 96.809 9.314 92.208 C 9.945 90.538 10.91 88.646 11.466 88.052 C 12.023 87.421 12.838 86.42 13.284 85.789 C 13.73 85.158 14.583 84.49 15.287 84.306 L 16.511 83.935 L 16.733 80.447 C 16.993 76.217 17.845 74.288 20.146 72.655 C 23.188 70.504 24.078 69.205 26.305 64.01 C 27.158 62.007 28.605 61.152 31.054 61.152 C 31.833 61.152 33.354 60.706 34.467 60.224 C 36.694 59.185 41.146 55.215 42.778 52.841 C 43.335 51.989 44.225 50.763 44.707 50.059 C 45.895 48.463 45.969 45.903 44.894 44.271 C 44.003 42.898 43.93 40.487 44.745 39.595 C 45.078 39.224 45.562 37.888 45.822 36.589 C 46.23 34.659 46.23 34.14 45.784 33.25 C 45.078 31.877 45.116 30.578 45.933 29.91 C 46.823 29.168 49.198 28.203 51.239 27.759 C 53.91 27.201 58.4 25.347 59.847 24.271 C 62.036 22.601 66.193 15.849 66.564 13.362 C 66.861 11.395 67.751 9.949 68.679 9.949 C 69.05 9.949 70.127 10.84 71.053 11.952 C 72.017 13.065 73.353 14.252 74.022 14.623 C 75.134 15.216 75.358 15.216 76.655 14.697 C 78.993 13.769 83.407 13.509 85.041 14.177 C 85.82 14.511 87.044 14.77 87.823 14.77 C 89.011 14.77 89.567 14.473 91.2 12.914 C 93.574 10.652 96.172 9.761 99.178 10.132 C 101.33 10.392 101.738 10.17 102.184 8.351 C 102.555 6.83 104.411 6.162 109.271 5.94 C 113.241 5.754 113.352 5.718 114.578 4.53 L 115.801 3.342 L 121.07 3.529 C 125.782 3.715 126.523 3.826 128.12 4.679 L 129.9 5.644 L 130.458 4.827 C 130.828 4.308 131.421 4.01 132.127 4.01 C 132.944 4.01 133.315 3.751 133.648 3.083 C 134.094 2.081 134.687 1.932 135.8 2.525 C 136.246 2.785 136.839 2.785 137.47 2.525 C 138.286 2.228 139.066 2.339 141.513 3.156 C 143.145 3.749 144.89 4.158 145.297 4.084 C 145.743 4.01 147.153 3.045 148.45 1.932 C 151.603 -0.776 152.271 -0.701 155.686 2.563 L 157.542 4.381 L 158.432 3.453 C 158.914 2.934 159.509 2.525 159.768 2.525 C 160.808 2.525 160.659 3.378 159.398 5.012 C 158.321 6.384 158.061 7.053 158.061 8.351 C 158.061 9.761 158.247 10.17 159.545 11.431 C 161.325 13.174 161.585 14.993 160.213 16.254 C 159.767 16.662 159.211 17.441 158.989 17.961 C 158.729 18.592 158.136 19.111 157.32 19.371 C 155.612 19.928 154.833 21.411 155.464 22.97 C 155.723 23.563 156.057 24.047 156.205 24.047 C 156.392 24.047 156.985 24.455 157.578 24.937 C 158.319 25.568 158.839 25.754 159.21 25.494 C 160.1 24.937 160.546 25.123 161.325 26.422 C 162.178 27.87 163.774 28.463 166.594 28.5 C 167.522 28.538 169.452 28.76 170.935 29.02 C 173.162 29.428 173.755 29.688 174.832 30.801 C 175.982 32.024 176.242 32.099 178.913 32.322 C 183.18 32.619 183.811 33.063 184.775 36.105 C 185.405 38.108 186.815 39.927 188.225 40.557 C 192.863 42.487 194.57 42.969 196.758 42.969 C 199.169 42.969 199.356 43.042 203.103 45.751 C 205.255 47.31 206.554 47.383 208.706 46.122 C 210.338 45.194 211.488 43.375 211.488 41.781 C 211.488 41.299 211.155 39.925 210.746 38.739 C 210.116 36.958 210.04 36.365 210.375 35.362 C 210.932 33.73 211.339 33.433 214.272 32.58 C 215.941 32.098 217.203 31.43 218.204 30.539 C 220.096 28.832 221.692 28.832 222.62 30.539 C 223.029 31.281 223.622 31.727 224.439 31.876 C 226.146 32.209 227.072 33.212 227.072 34.658 C 227.072 36.104 227.146 36.179 232.638 36.476 C 234.976 36.625 237.201 36.809 237.536 36.885 C 237.87 36.996 238.686 37.886 239.279 38.888 C 240.541 40.928 241.098 41.15 241.839 39.964 C 242.173 39.445 242.545 39.296 242.952 39.445 C 243.285 39.556 245.104 40.002 246.996 40.373 C 248.925 40.744 250.854 41.374 251.448 41.82 C 252.005 42.229 253.377 42.748 254.49 42.97 C 255.566 43.157 257.309 43.601 258.348 43.898 C 260.5 44.529 262.43 44.604 263.431 44.085 C 263.802 43.898 264.433 43.157 264.841 42.452 C 265.323 41.636 265.954 41.116 266.697 40.931 C 267.328 40.82 268.033 40.449 268.293 40.152 C 269.37 38.853 270 38.816 274.119 40.003 C 278.535 41.265 279.314 41.562 277.829 41.34 C 277.236 41.266 276.79 41.34 276.79 41.526 C 276.79 41.675 277.681 43.789 278.793 46.202 C 279.981 48.8 280.649 50.729 280.463 50.914 C 278.867 52.621 283.691 61.673 288.254 65.681 C 289.331 66.571 289.404 66.831 289.404 69.131 C 289.404 71.432 289.442 71.691 290.925 73.139 C 291.742 73.956 292.668 75.18 293.003 75.773 C 293.301 76.403 293.931 77.331 294.413 77.851 C 295.526 79.074 298.31 84.456 298.31 85.346 C 298.31 86.496 298.978 87.387 299.979 87.647 C 300.721 87.833 300.907 88.129 300.907 88.983 C 300.907 89.576 300.759 90.466 300.537 91.024 C 299.646 93.361 301.465 96.515 303.949 97.034 C 305.248 97.294 306.696 99.297 308.625 103.38 C 310.481 107.423 310.926 109.428 310.926 113.731 C 310.926 119.444 312.595 123.118 315.193 123.118 C 315.823 123.118 316.083 123.378 316.27 124.231 C 316.456 125.159 316.64 125.344 317.568 125.344 C 318.83 125.344 318.905 125.455 320.128 128.312 C 321.649 131.8 323.616 139.851 323.319 141.299 C 323.097 142.338 324.358 144.267 325.249 144.267 C 325.546 144.267 326.399 144.824 327.14 145.491 C 327.92 146.159 329.07 147.012 329.663 147.42 C 332.038 148.904 334.745 151.501 335.303 152.874 C 335.6 153.615 336.119 154.321 336.453 154.432 C 336.824 154.543 337.825 154.803 338.753 155.025 C 340.423 155.471 341.722 156.324 341.722 156.955 C 341.722 157.141 342.203 157.994 342.798 158.847 C 343.355 159.7 343.948 160.776 344.097 161.258 C 344.246 161.704 344.914 162.335 345.618 162.594 C 346.62 163.041 346.879 163.374 347.028 164.562 C 347.139 165.341 347.361 166.417 347.474 167.01 C 347.807 168.309 347.141 169.126 345.767 169.126 C 344.543 169.126 343.837 170.092 344.357 171.056 C 344.617 171.538 345.098 171.686 346.175 171.649 C 348.067 171.575 348.846 172.317 349.663 174.766 C 349.996 175.843 350.554 176.993 350.887 177.364 C 351.777 178.365 354.524 178.216 358.529 176.918 C 361.609 175.916 362.313 175.841 364.986 176.065 L 367.992 176.287 L 369.402 174.915 C 370.59 173.764 370.998 173.578 372.555 173.578 C 373.557 173.578 375.189 173.245 376.228 172.836 C 377.527 172.317 378.566 172.168 379.494 172.317 C 381.09 172.577 385.802 170.945 388.175 169.311 C 388.917 168.791 389.734 168.383 389.994 168.383 C 390.846 168.383 391.812 169.607 391.812 170.758 C 391.85 171.389 392.072 172.317 392.369 172.836 C 392.667 173.356 392.889 174.433 392.889 175.248 L 392.877 175.248 Z" fill="currentColor" fill-rule="nonzero"/>
</svg>
