<svg xmlns="http://www.w3.org/2000/svg" width="390.889" height="474.856" viewBox="0 0 390.889 474.856" fill="none">
  <path d="M 390.877 175.248 C 390.877 176.065 390.656 177.14 390.36 177.659 C 390.065 178.216 389.806 179.662 389.806 181.185 C 389.769 184.302 389.252 185.897 387.518 188.308 C 385.746 190.719 382.534 196.508 381.869 198.511 C 381.538 199.363 381.021 200.662 380.725 201.368 C 380.393 202.036 380.023 203.446 379.876 204.521 C 379.545 206.822 379.138 207.601 376.813 210.494 C 375.631 211.942 374.82 213.425 374.451 214.762 C 373.38 218.62 372.79 219.548 369.025 223.036 C 366.293 225.559 365.148 226.895 364.521 228.305 C 363.635 230.346 362.27 231.682 359.352 233.352 C 355.292 235.69 347.059 243.592 344.143 247.971 C 343.33 249.194 341.854 250.939 340.858 251.867 C 338.09 254.354 334.803 258.212 334.803 258.917 C 334.803 259.25 333.732 260.66 332.404 262.034 C 331.075 263.406 330.005 264.78 330.005 265.04 C 330.005 265.337 329.267 266.301 328.381 267.229 C 326.72 268.899 326.61 269.159 326.13 273.091 C 326.02 274.055 325.576 275.243 325.171 275.725 C 324.211 276.986 324.285 277.357 325.577 277.654 C 326.943 277.951 327.497 278.915 327.349 280.734 C 327.276 281.648 326.672 282.118 325.54 282.144 C 323.325 282.217 322.403 282.737 321.516 284.517 C 320.482 286.52 320.592 287.523 321.922 288.821 C 324.063 290.861 324.69 293.161 323.51 294.831 C 322.439 296.39 322.218 297.911 322.661 300.842 C 322.883 302.363 323.362 304.33 323.768 305.22 C 324.137 306.073 324.469 307.409 324.469 308.189 C 324.469 311.454 326.093 313.939 329.711 316.277 C 331.41 317.354 331.741 318.54 330.893 320.174 C 330.265 321.435 330.228 321.992 330.007 334.606 C 329.969 336.758 330.044 339.429 330.192 340.579 C 330.524 343.213 330.007 344.289 326.797 347.666 C 324.914 349.596 324.36 350.413 324.287 351.452 C 324.066 353.714 323.77 354.16 320.706 356.832 C 318.307 358.947 317.384 359.503 315.76 359.874 C 312.733 360.542 310.297 362.136 308.267 364.772 C 307.27 366.07 305.13 368.297 303.542 369.743 C 301.29 371.746 300.515 372.749 300.146 373.935 C 299.667 375.567 299.075 375.976 296.048 376.533 C 292.984 377.09 291.619 380.243 293.649 382.024 C 294.277 382.581 294.573 383.212 294.573 384.027 C 294.573 384.695 294.941 385.994 295.348 386.92 C 295.865 388.033 296.013 388.961 295.865 389.778 C 295.717 390.595 295.902 391.447 296.419 392.449 C 297.305 394.267 297.342 395.231 296.53 397.347 C 296.161 398.386 295.94 400.24 295.902 402.467 L 295.865 405.955 L 294.093 407.551 C 292.763 408.775 291.842 409.258 290.216 409.592 C 287.374 410.185 284.31 411.854 282.39 413.821 C 280.877 415.38 280.802 415.529 280.543 418.571 C 280.1 423.32 279.103 427.29 277.738 429.813 C 277.036 431.036 276.483 432.595 276.483 433.263 C 276.483 434.451 276.373 434.562 274.601 434.933 C 273.826 435.119 273.198 435.934 271.5 438.94 C 269.691 442.206 266.996 446.287 263.304 451.37 C 262.677 452.223 261.939 452.706 260.757 453.002 C 259.392 453.373 258.948 453.706 258.21 454.969 C 257.324 456.49 252.082 461.759 248.649 464.616 C 247.209 465.804 246.619 466.064 245.438 466.026 C 244.331 465.988 243.739 466.212 242.78 467.028 C 241.784 467.918 241.267 468.104 239.753 468.067 C 238.388 468.029 237.169 468.326 235.176 469.254 C 232.444 470.478 232.408 470.478 229.934 470.034 C 228.421 469.736 226.797 469.663 225.689 469.847 C 223.88 470.107 221.887 470.181 219.45 469.996 C 218.564 469.922 217.789 470.145 217.014 470.738 C 216.386 471.22 215.242 471.628 214.504 471.702 C 211.44 471.888 208.303 472.741 206.752 473.78 C 205.829 474.373 204.833 474.856 204.501 474.856 C 204.205 474.856 203.136 474.039 202.139 473.038 C 200.847 471.702 199.999 471.182 198.965 470.997 C 198.19 470.886 197.193 470.478 196.75 470.107 C 196.012 469.514 195.974 469.401 196.529 468.957 C 197.414 468.215 197.266 467.474 195.864 465.915 C 194.609 464.543 193.944 462.687 194.24 461.239 C 194.313 460.793 194.757 460.535 195.643 460.46 C 197.266 460.311 197.489 459.94 197.489 457.38 C 197.489 455.784 197.304 455.005 196.603 454.041 C 196.086 453.335 195.274 451.925 194.794 450.85 C 194.277 449.811 193.502 448.734 193.06 448.512 C 191.842 447.882 190.844 445.211 190.882 442.873 C 190.955 440.015 188.889 434.895 187.338 434.042 C 186.342 433.485 185.233 431.891 183.168 428.105 C 182.465 426.806 181.248 420.982 181.248 418.866 C 181.248 418.236 180.916 416.751 180.51 415.565 C 179.92 413.895 179.808 412.931 179.993 410.667 C 180.178 408.329 180.03 407.401 179.255 404.767 C 178.221 401.39 178.073 399.09 178.701 396.827 C 179.255 394.712 178.886 393.674 176.081 389.74 C 173.571 386.179 172.648 384.174 172.204 380.983 C 171.872 378.832 170.653 375.863 169.62 374.675 C 169.14 374.156 168.475 372.819 168.144 371.707 C 167.664 370.259 166.962 369.184 165.707 367.959 C 164.747 367.031 163.825 365.77 163.64 365.177 C 163.085 362.95 163.308 357.608 164.488 347.367 C 164.599 346.515 165.19 345.029 165.818 344.066 C 166.777 342.618 166.999 341.765 167.368 338.499 C 167.664 336.05 168.033 334.381 168.402 333.972 C 168.698 333.601 169.067 332.451 169.14 331.375 C 169.361 328.852 170.801 326.068 172.352 325.142 C 175.97 322.99 176.708 321.023 175.343 317.164 C 174.899 315.828 173.829 313.232 173.017 311.414 C 171.282 307.63 171.135 305.7 172.352 303.658 C 173.459 301.878 173.348 301.025 171.466 297.166 C 170.543 295.274 169.805 293.344 169.805 292.898 C 169.805 292.417 169.14 291.043 168.329 289.856 C 166.595 287.296 166.52 286.591 167.775 285.775 C 168.292 285.442 168.698 285.034 168.698 284.885 C 168.698 284.736 168.292 284.439 167.775 284.217 C 167.073 283.883 166.852 283.511 166.852 282.547 C 166.852 281.359 165.376 278.577 163.898 276.907 C 163.529 276.499 163.16 275.757 163.085 275.238 C 163.012 274.607 162.568 274.125 161.756 273.79 C 161.018 273.457 160.501 272.9 160.39 272.38 C 160.28 271.898 160.132 271.157 160.021 270.673 C 159.948 270.191 159.025 268.855 158.029 267.705 C 156.995 266.517 155.703 264.774 155.186 263.808 C 154.632 262.844 153.487 261.062 152.639 259.838 C 150.165 256.201 149.39 253.976 149.612 251.119 C 149.723 249.782 150.202 247.446 150.719 245.923 C 151.236 244.402 151.753 242.14 151.901 240.914 C 152.049 239.691 152.566 237.131 153.083 235.201 C 153.858 232.308 153.968 231.045 153.858 228.114 C 153.71 223.736 152.751 221.584 149.464 217.947 L 147.213 215.498 L 143.559 215.498 C 140.089 215.498 139.83 215.572 137.579 216.797 C 136.287 217.503 134.959 218.096 134.626 218.096 C 134.109 218.096 132.596 217.243 130.491 215.758 C 129.936 215.35 129.753 214.757 129.715 213.236 C 129.678 212.123 129.642 211.046 129.605 210.787 C 129.532 209.97 127.648 208.04 126.209 207.336 C 125.324 206.854 124.769 206.297 124.696 205.778 C 124.623 205.185 124.252 204.85 123.479 204.701 C 121.486 204.255 109.893 204.404 107.421 204.887 C 105.391 205.258 105.022 205.444 104.837 206.224 C 104.651 207.076 104.357 207.189 101.366 207.596 C 98.967 207.893 97.896 208.227 97.269 208.82 C 96.825 209.228 95.793 209.785 95.017 210.007 C 94.242 210.194 92.877 210.86 92.027 211.455 C 91.178 212.048 89.738 212.678 88.852 212.865 C 87.929 213.013 86.674 213.533 86.009 214.015 L 84.865 214.832 L 83.869 213.904 C 82.17 212.272 79.587 211.381 75.342 210.973 C 70.285 210.491 67.996 210.676 66.629 211.715 C 65.927 212.234 64.71 212.605 63.307 212.754 C 61.977 212.902 60.575 213.311 59.764 213.83 C 57.771 215.129 53.967 216.983 53.377 216.983 C 53.046 216.983 52.27 216.65 51.606 216.242 C 50.941 215.833 49.982 215.5 49.465 215.5 C 48.321 215.5 47.841 215.203 47.287 214.128 C 46.991 213.571 46.474 213.275 45.478 213.2 C 44.26 213.089 44.075 212.94 43.631 211.604 C 42.966 209.563 41.047 207.707 37.503 205.704 C 34.144 203.812 31.08 200.917 30.49 199.099 C 30.194 198.246 29.788 197.838 28.939 197.615 C 28.201 197.429 27.574 196.874 27.057 195.946 C 26.613 195.166 25.248 193.572 24.03 192.384 C 21.556 189.973 21.039 188.599 21.779 186.411 C 22.185 185.112 22.185 185.075 20.191 183.072 C 18.861 181.773 17.792 180.994 17.127 180.92 C 16.389 180.847 16.02 180.587 15.945 180.067 C 15.872 179.659 15.243 178.1 14.543 176.617 C 13.472 174.428 12.992 173.797 11.996 173.351 C 10.851 172.905 10.741 172.683 10.52 170.791 C 10.224 168.38 9.265 167.414 6.939 167.007 C 3.838 166.525 2.214 163.928 2.916 160.551 C 3.137 159.549 3.322 157.509 3.322 156.061 C 3.322 153.575 3.249 153.39 2.068 152.277 C 0.554 150.868 0 149.828 0 148.419 C 0 147.231 0.848 146.267 3.581 144.486 L 5.353 143.336 L 5.574 140.367 C 5.943 135.804 6.422 133.764 7.531 131.87 C 8.454 130.274 8.527 129.903 8.269 127.714 C 8.083 125.933 8.158 125.005 8.527 124.337 C 8.971 123.484 8.971 123.336 8.527 123.187 C 7.641 122.89 5.611 120.776 5.353 119.885 C 5.205 119.292 5.426 118.773 6.312 117.882 C 7.308 116.881 7.418 116.51 7.235 115.36 C 7.124 114.618 7.014 113.617 7.014 113.171 C 7.014 112.613 6.386 111.687 5.39 110.722 C 3.36 108.719 2.399 106.046 2.77 103.523 C 2.991 102.076 3.324 101.483 4.8 100.11 C 6.757 98.292 7.605 96.809 9.267 92.208 C 9.894 90.538 10.855 88.646 11.407 88.052 C 11.962 87.421 12.773 86.42 13.216 85.789 C 13.66 85.158 14.509 84.49 15.209 84.306 L 16.427 83.935 L 16.648 80.447 C 16.906 76.217 17.755 74.288 20.043 72.655 C 23.07 70.504 23.956 69.205 26.171 64.01 C 27.019 62.007 28.46 61.152 30.896 61.152 C 31.671 61.152 33.185 60.706 34.292 60.224 C 36.507 59.185 40.936 55.215 42.56 52.841 C 43.114 51.989 44 50.763 44.48 50.059 C 45.661 48.463 45.735 45.903 44.665 44.271 C 43.779 42.898 43.706 40.487 44.517 39.595 C 44.849 39.224 45.33 37.888 45.588 36.589 C 45.995 34.659 45.995 34.14 45.551 33.25 C 44.849 31.877 44.886 30.578 45.699 29.91 C 46.585 29.168 48.948 28.203 50.978 27.759 C 53.636 27.201 58.102 25.347 59.543 24.271 C 61.721 22.601 65.856 15.849 66.225 13.362 C 66.521 11.395 67.406 9.949 68.33 9.949 C 68.699 9.949 69.77 10.84 70.691 11.952 C 71.65 13.065 72.98 14.252 73.645 14.623 C 74.752 15.216 74.974 15.216 76.265 14.697 C 78.591 13.769 82.983 13.509 84.608 14.177 C 85.384 14.511 86.601 14.77 87.376 14.77 C 88.558 14.77 89.111 14.473 90.736 12.914 C 93.098 10.652 95.682 9.761 98.673 10.132 C 100.814 10.392 101.22 10.17 101.664 8.351 C 102.033 6.83 103.879 6.162 108.715 5.94 C 112.665 5.754 112.775 5.718 113.994 4.53 L 115.212 3.342 L 120.454 3.529 C 125.141 3.715 125.879 3.826 127.467 4.679 L 129.239 5.644 L 129.793 4.827 C 130.162 4.308 130.752 4.01 131.455 4.01 C 132.267 4.01 132.636 3.751 132.968 3.083 C 133.412 2.081 134.002 1.932 135.109 2.525 C 135.552 2.785 136.142 2.785 136.77 2.525 C 137.582 2.228 138.358 2.339 140.793 3.156 C 142.416 3.749 144.152 4.158 144.557 4.084 C 145.001 4.01 146.404 3.045 147.694 1.932 C 150.831 -0.776 151.496 -0.701 154.893 2.563 L 156.74 4.381 L 157.626 3.453 C 158.105 2.934 158.697 2.525 158.955 2.525 C 159.989 2.525 159.841 3.378 158.586 5.012 C 157.515 6.384 157.257 7.053 157.257 8.351 C 157.257 9.761 157.442 10.17 158.732 11.431 C 160.504 13.174 160.763 14.993 159.397 16.254 C 158.954 16.662 158.401 17.441 158.18 17.961 C 157.921 18.592 157.331 19.111 156.519 19.371 C 154.82 19.928 154.045 21.411 154.672 22.97 C 154.931 23.563 155.262 24.047 155.41 24.047 C 155.595 24.047 156.185 24.455 156.775 24.937 C 157.513 25.568 158.03 25.754 158.399 25.494 C 159.285 24.937 159.729 25.123 160.504 26.422 C 161.353 27.87 162.941 28.463 165.746 28.5 C 166.669 28.538 168.589 28.76 170.065 29.02 C 172.28 29.428 172.87 29.688 173.942 30.801 C 175.086 32.024 175.344 32.099 178.002 32.322 C 182.248 32.619 182.875 33.063 183.834 36.105 C 184.461 38.108 185.864 39.927 187.267 40.557 C 191.881 42.487 193.58 42.969 195.756 42.969 C 198.156 42.969 198.341 43.042 202.07 45.751 C 204.21 47.31 205.502 47.383 207.643 46.122 C 209.267 45.194 210.411 43.375 210.411 41.781 C 210.411 41.299 210.08 39.925 209.673 38.739 C 209.046 36.958 208.971 36.365 209.304 35.362 C 209.859 33.73 210.263 33.433 213.181 32.58 C 214.842 32.098 216.097 31.43 217.093 30.539 C 218.976 28.832 220.564 28.832 221.487 30.539 C 221.893 31.281 222.483 31.727 223.296 31.876 C 224.995 32.209 225.916 33.212 225.916 34.658 C 225.916 36.104 225.989 36.179 231.454 36.476 C 233.78 36.625 235.994 36.809 236.327 36.885 C 236.659 36.996 237.471 37.886 238.061 38.888 C 239.316 40.928 239.87 41.15 240.608 39.964 C 240.94 39.445 241.311 39.296 241.715 39.445 C 242.047 39.556 243.856 40.002 245.738 40.373 C 247.658 40.744 249.578 41.374 250.168 41.82 C 250.722 42.229 252.087 42.748 253.194 42.97 C 254.265 43.157 256 43.601 257.033 43.898 C 259.174 44.529 261.094 44.604 262.09 44.085 C 262.459 43.898 263.086 43.157 263.493 42.452 C 263.972 41.636 264.6 41.116 265.339 40.931 C 265.967 40.82 266.669 40.449 266.927 40.152 C 267.998 38.853 268.626 38.816 272.724 40.003 C 277.117 41.265 277.892 41.562 276.415 41.34 C 275.825 41.266 275.381 41.34 275.381 41.526 C 275.381 41.675 276.267 43.789 277.374 46.202 C 278.556 48.8 279.22 50.729 279.035 50.914 C 277.447 52.621 282.247 61.673 286.787 65.681 C 287.858 66.571 287.931 66.831 287.931 69.131 C 287.931 71.432 287.968 71.691 289.444 73.139 C 290.257 73.956 291.179 75.18 291.512 75.773 C 291.808 76.403 292.435 77.331 292.915 77.851 C 294.022 79.074 296.791 84.456 296.791 85.346 C 296.791 86.496 297.456 87.387 298.452 87.647 C 299.19 87.833 299.376 88.129 299.376 88.983 C 299.376 89.576 299.228 90.466 299.007 91.024 C 298.121 93.361 299.93 96.515 302.402 97.034 C 303.694 97.294 305.135 99.297 307.054 103.38 C 308.901 107.423 309.343 109.428 309.343 113.731 C 309.343 119.444 311.004 123.118 313.588 123.118 C 314.216 123.118 314.474 123.378 314.66 124.231 C 314.845 125.159 315.029 125.344 315.952 125.344 C 317.207 125.344 317.281 125.455 318.499 128.312 C 320.012 131.8 321.969 139.851 321.673 141.299 C 321.452 142.338 322.707 144.267 323.593 144.267 C 323.889 144.267 324.737 144.824 325.475 145.491 C 326.25 146.159 327.395 147.012 327.985 147.42 C 330.348 148.904 333.041 151.501 333.596 152.874 C 333.892 153.615 334.408 154.321 334.74 154.432 C 335.109 154.543 336.105 154.803 337.029 155.025 C 338.69 155.471 339.982 156.324 339.982 156.955 C 339.982 157.141 340.462 157.994 341.053 158.847 C 341.607 159.7 342.197 160.776 342.345 161.258 C 342.493 161.704 343.158 162.335 343.859 162.594 C 344.855 163.041 345.113 163.374 345.261 164.562 C 345.372 165.341 345.593 166.417 345.705 167.01 C 346.037 168.309 345.374 169.126 344.007 169.126 C 342.789 169.126 342.087 170.092 342.604 171.056 C 342.862 171.538 343.342 171.686 344.413 171.649 C 346.295 171.575 347.07 172.317 347.883 174.766 C 348.215 175.843 348.769 176.993 349.101 177.364 C 349.986 178.365 352.719 178.216 356.704 176.918 C 359.768 175.916 360.469 175.841 363.128 176.065 L 366.119 176.287 L 367.522 174.915 C 368.703 173.764 369.11 173.578 370.659 173.578 C 371.655 173.578 373.279 173.245 374.313 172.836 C 375.605 172.317 376.639 172.168 377.562 172.317 C 379.15 172.577 383.838 170.945 386.199 169.311 C 386.937 168.791 387.75 168.383 388.008 168.383 C 388.857 168.383 389.818 169.607 389.818 170.758 C 389.855 171.389 390.076 172.317 390.372 172.836 C 390.668 173.356 390.889 174.433 390.889 175.248 L 390.877 175.248 Z" fill="currentColor" fill-rule="nonzero"/>
</svg>
